<svg width="179" height="68" viewBox="0 0 179 68" fill="none" xmlns="http://www.w3.org/2000/svg">
<g clip-path="url(#clip0_1579_1973)" filter="url(#filter0_d_1579_1973)">
<path d="M49.704 12.9335L47.7361 18.8836C49.5142 17.5882 51.6258 16.7868 53.6604 16.7868C55.6951 16.7868 57.2833 17.5933 58.1838 18.8987L60.0107 13.43C58.6534 11.4239 57.0575 9.58422 55.264 7.95619C52.8265 8.53331 50.4994 10.5469 49.7091 12.931L49.704 12.9335Z" fill="#FF344A"/>
<path d="M55.0714 34.9702C54.1324 37.8053 55.718 40.1113 58.6045 40.1113C60.6212 40.1113 62.7456 38.9848 64.1645 37.3416C64.7674 34.9928 65.0882 32.5332 65.0882 30.0004C65.0882 24.8719 63.7771 20.0458 61.4679 15.8245L55.074 34.9727L55.0714 34.9702Z" fill="#FF344A"/>
<path d="M27.6481 41.1098L25.6776 47.0675C24.7411 49.9026 26.3268 52.2086 29.2133 52.2086C32.0997 52.2086 35.212 49.9026 36.1485 47.0675L38.1164 41.1148C36.3384 42.4127 34.2242 43.2116 32.1921 43.2116C30.16 43.2116 28.5693 42.4102 27.6507 41.1098H27.6481Z" fill="#FF344A"/>
<path d="M9.5446 29.879C12.78 30.0605 14.7967 32.5907 14.3374 35.683C14.4503 35.4486 14.5453 35.2092 14.6248 34.9672L21.986 12.9309C23.3304 8.87097 27.782 5.57208 31.9154 5.57208C36.0489 5.57208 38.317 8.87349 36.9751 12.9309L29.3933 35.8493C28.4568 38.6845 30.0424 40.9904 32.9289 40.9904C35.8154 40.9904 38.8327 38.7525 39.818 35.9753L43.7333 24.1406C43.7538 24.0776 43.7744 24.0146 43.8 23.9516C43.8 23.9466 43.8026 23.9415 43.8052 23.9365L47.4485 12.9259C48.3696 10.1411 50.7532 7.71421 53.496 6.46421C48.2824 2.41935 41.7012 0 34.5428 0C17.6755 0 4 13.4325 4 30C4 30.6225 4.02053 31.2399 4.05901 31.8548C5.5959 30.5469 7.58436 29.7707 9.54204 29.879H9.5446Z" fill="#FF344A"/>
<path d="M57.8702 42.3315C53.7368 42.3315 51.4686 39.0301 52.8105 34.9726L56.6053 23.6092C57.1851 21.026 55.6226 19.0074 52.9234 19.0074C50.2242 19.0074 47.0478 21.2226 46.0472 23.9822L42.1216 35.8547C42.0934 35.9353 42.0651 36.016 42.0343 36.0991L38.4064 47.0694C37.0645 51.1268 32.6103 54.4308 28.4795 54.4308C24.3486 54.4308 22.0779 51.1268 23.4198 47.0694L31.0016 24.1485C31.9407 21.3133 30.355 19.0074 27.4685 19.0074C24.5821 19.0074 21.4698 21.3133 20.5333 24.1485H20.4999L16.8848 34.9726C15.5429 39.0326 11.0887 42.3315 6.95788 42.3315C6.89117 42.3315 6.82189 42.3315 6.75775 42.3264C6.73466 42.3264 6.71157 42.3264 6.69104 42.3264C11.4787 52.7473 22.1497 60.0003 34.5449 60.0003C47.5687 60.0003 58.6861 51.9938 63.0787 40.7186C61.4623 41.7266 59.638 42.3315 57.8728 42.3315H57.8702Z" fill="#FF344A"/>
<path d="M75.795 25.132H77.5115V25.8402C77.6065 25.7621 77.7091 25.6865 77.8194 25.6159C78.6122 25.0967 79.4589 24.8372 80.3621 24.8372C81.7707 24.8372 82.9869 25.4319 84.0157 26.6189C84.4699 26.0922 84.9805 25.6713 85.5449 25.3563C86.2351 24.9859 86.9612 24.8019 87.7233 24.8019C89.2114 24.8019 90.4763 25.447 91.518 26.7374C92.5238 27.9949 93.0267 29.502 93.0267 31.256V37.4002H91.3102V31.256C91.3102 29.9506 90.9458 28.8467 90.2197 27.942C89.5295 27.0776 88.6982 26.6441 87.7233 26.6441C87.2383 26.6441 86.7739 26.7651 86.3249 27.0095C85.8554 27.2616 85.4526 27.6194 85.1139 28.0831L85.0138 28.2016C85.4551 29.1618 85.6732 30.19 85.6732 31.2913V37.448H83.9336V31.2913C83.9336 29.9934 83.5693 28.8921 82.8432 27.9899C82.153 27.1255 81.3243 26.692 80.357 26.692C79.7617 26.692 79.2126 26.8609 78.7072 27.1986C78.2377 27.506 77.8374 27.9269 77.509 28.4612V37.448H75.7925V25.1345L75.795 25.132Z" fill="black"/>
<path d="M111.638 37.446H109.922V36.6446C109.752 36.7631 109.583 36.8765 109.416 36.9874C108.559 37.499 107.641 37.7535 106.666 37.7535C105.052 37.7535 103.677 37.1159 102.54 35.8432C101.411 34.5857 100.847 33.071 100.847 31.3019V25.1325H102.563V31.3019C102.563 32.5847 102.966 33.6734 103.774 34.568C104.575 35.4501 105.539 35.8886 106.668 35.8886C107.351 35.8886 107.99 35.7147 108.582 35.3694C109.119 35.0544 109.565 34.631 109.924 34.0967V25.1325H111.641V37.446H111.638Z" fill="black"/>
<path d="M128.016 25.12V26.9723H123.054C122.423 26.9723 121.895 27.0857 121.471 27.315C120.914 27.6074 120.635 28.0585 120.635 28.6709C120.635 29.1976 120.984 29.5983 121.679 29.873C122.097 30.0393 122.867 30.2031 123.991 30.3695C125.605 30.6215 126.713 30.9088 127.313 31.2314C128.327 31.7732 128.832 32.6653 128.832 33.9078C128.832 35.1502 128.355 36.0071 127.403 36.6447C126.603 37.1789 125.612 37.4461 124.432 37.4461H119.139V35.5938H124.432C125.115 35.5938 125.687 35.4904 126.149 35.2863C126.787 34.9965 127.106 34.5353 127.106 33.9052C127.106 33.371 126.757 32.9703 126.061 32.7031C125.643 32.5368 124.873 32.3679 123.752 32.1966C122.138 31.9521 121.03 31.6699 120.429 31.3473C119.416 30.8054 118.911 29.9133 118.911 28.6709C118.911 27.5141 119.347 26.6144 120.219 25.9693C120.989 25.4022 121.936 25.12 123.057 25.12H128.019H128.016Z" fill="black"/>
<path d="M136.65 19.0325H138.366V20.8722H136.65V19.0325ZM136.65 25.1313H138.366V37.4448H136.65V25.1313Z" fill="black"/>
<path d="M156.46 27.349L152.927 29.8616C153.823 30.2321 154.621 30.8042 155.326 31.5829C156.486 32.8808 157.066 34.34 157.066 35.9579V37.4448H155.349V35.9579C155.349 34.8188 154.931 33.7805 154.095 32.843C153.207 31.8601 152.257 31.3687 151.244 31.3687H150.816L148.45 33.032V37.4423H146.733V19.0325H148.45V30.8042L156.46 25.1313V27.349Z" fill="black"/>
<path d="M172.783 37.0707C171.939 37.5269 171.052 37.7537 170.12 37.7537C168.455 37.7537 167.039 37.1211 165.874 35.8535C164.694 34.5959 164.104 33.0788 164.104 31.2995C164.104 29.5203 164.694 27.9931 165.874 26.7355C167.041 25.478 168.455 24.8479 170.12 24.8479C171.023 24.8479 171.885 25.0596 172.707 25.4855C173.535 25.9089 174.233 26.5037 174.798 27.2673C174.952 27.4639 175.018 27.6882 174.995 27.9402C174.964 28.1922 174.859 28.4014 174.677 28.5652L167.801 35.1705C168.499 35.6493 169.271 35.8913 170.123 35.8913C170.798 35.8913 171.436 35.7375 172.037 35.4301C172.632 35.1075 173.132 34.6564 173.545 34.0742L174.91 35.1957C174.338 35.9971 173.63 36.6221 172.786 37.0707H172.783ZM166.556 33.8852L172.904 27.799C172.617 27.5395 172.306 27.3227 171.97 27.1514C171.39 26.8439 170.774 26.6902 170.12 26.6902C168.932 26.6902 167.919 27.1413 167.082 28.046C166.238 28.9432 165.817 30.0269 165.817 31.3021C165.817 32.2446 166.064 33.1065 166.554 33.8852H166.556Z" fill="black"/>
<!-- <path d="M75.795 25.132H77.5115V25.8402C77.6065 25.7621 77.7091 25.6865 77.8194 25.6159C78.6122 25.0967 79.4589 24.8372 80.3621 24.8372C81.7707 24.8372 82.9869 25.4319 84.0157 26.6189C84.4699 26.0922 84.9805 25.6713 85.5449 25.3563C86.2351 24.9859 86.9612 24.8019 87.7233 24.8019C89.2114 24.8019 90.4763 25.447 91.518 26.7374C92.5238 27.9949 93.0267 29.502 93.0267 31.256V37.4002H91.3102V31.256C91.3102 29.9506 90.9458 28.8467 90.2197 27.942C89.5295 27.0776 88.6982 26.6441 87.7233 26.6441C87.2383 26.6441 86.7739 26.7651 86.3249 27.0095C85.8554 27.2616 85.4526 27.6194 85.1139 28.0831L85.0138 28.2016C85.4551 29.1618 85.6732 30.19 85.6732 31.2913V37.448H83.9336V31.2913C83.9336 29.9934 83.5693 28.8921 82.8432 27.9899C82.153 27.1255 81.3243 26.692 80.357 26.692C79.7617 26.692 79.2126 26.8609 78.7072 27.1986C78.2377 27.506 77.8374 27.9269 77.509 28.4612V37.448H75.7925V25.1345L75.795 25.132Z" fill="#FF344A"/>
<path d="M111.638 37.446H109.922V36.6446C109.752 36.7631 109.583 36.8765 109.416 36.9874C108.559 37.499 107.641 37.7535 106.666 37.7535C105.052 37.7535 103.677 37.1159 102.54 35.8432C101.411 34.5857 100.847 33.071 100.847 31.3019V25.1325H102.563V31.3019C102.563 32.5847 102.966 33.6734 103.774 34.568C104.575 35.4501 105.539 35.8886 106.668 35.8886C107.351 35.8886 107.99 35.7147 108.582 35.3694C109.119 35.0544 109.565 34.631 109.924 34.0967V25.1325H111.641V37.446H111.638Z" fill="#FF344A"/>
<path d="M128.016 25.12V26.9723H123.054C122.423 26.9723 121.895 27.0857 121.471 27.315C120.914 27.6074 120.635 28.0585 120.635 28.6709C120.635 29.1976 120.984 29.5983 121.679 29.873C122.097 30.0393 122.867 30.2031 123.991 30.3695C125.605 30.6215 126.713 30.9088 127.313 31.2314C128.327 31.7732 128.832 32.6653 128.832 33.9078C128.832 35.1502 128.355 36.0071 127.403 36.6447C126.603 37.1789 125.612 37.4461 124.432 37.4461H119.139V35.5938H124.432C125.115 35.5938 125.687 35.4904 126.149 35.2863C126.787 34.9965 127.106 34.5353 127.106 33.9052C127.106 33.371 126.757 32.9703 126.061 32.7031C125.643 32.5368 124.873 32.3679 123.752 32.1966C122.138 31.9521 121.03 31.6699 120.429 31.3473C119.416 30.8054 118.911 29.9133 118.911 28.6709C118.911 27.5141 119.347 26.6144 120.219 25.9693C120.989 25.4022 121.936 25.12 123.057 25.12H128.019H128.016Z" fill="#FF344A"/>
<path d="M136.65 19.0325H138.366V20.8722H136.65V19.0325ZM136.65 25.1313H138.366V37.4448H136.65V25.1313Z" fill="#FF344A"/>
<path d="M156.46 27.349L152.927 29.8616C153.823 30.2321 154.621 30.8042 155.326 31.5829C156.486 32.8808 157.066 34.34 157.066 35.9579V37.4448H155.349V35.9579C155.349 34.8188 154.931 33.7805 154.095 32.843C153.207 31.8601 152.257 31.3687 151.244 31.3687H150.816L148.45 33.032V37.4423H146.733V19.0325H148.45V30.8042L156.46 25.1313V27.349Z" fill="#FF344A"/>
<path d="M172.783 37.0707C171.939 37.5269 171.052 37.7537 170.12 37.7537C168.455 37.7537 167.039 37.1211 165.874 35.8535C164.694 34.5959 164.104 33.0788 164.104 31.2995C164.104 29.5203 164.694 27.9931 165.874 26.7355C167.041 25.478 168.455 24.8479 170.12 24.8479C171.023 24.8479 171.885 25.0596 172.707 25.4855C173.535 25.9089 174.233 26.5037 174.798 27.2673C174.952 27.4639 175.018 27.6882 174.995 27.9402C174.964 28.1922 174.859 28.4014 174.677 28.5652L167.801 35.1705C168.499 35.6493 169.271 35.8913 170.123 35.8913C170.798 35.8913 171.436 35.7375 172.037 35.4301C172.632 35.1075 173.132 34.6564 173.545 34.0742L174.91 35.1957C174.338 35.9971 173.63 36.6221 172.786 37.0707H172.783ZM166.556 33.8852L172.904 27.799C172.617 27.5395 172.306 27.3227 171.97 27.1514C171.39 26.8439 170.774 26.6902 170.12 26.6902C168.932 26.6902 167.919 27.1413 167.082 28.046C166.238 28.9432 165.817 30.0269 165.817 31.3021C165.817 32.2446 166.064 33.1065 166.554 33.8852H166.556Z" fill="#FF344A"/> -->
</g>
<defs>
<filter id="filter0_d_1579_1973" x="0" y="0" width="179" height="68" filterUnits="userSpaceOnUse" color-interpolation-filters="sRGB">
<feFlood flood-opacity="0" result="BackgroundImageFix"/>
<feColorMatrix in="SourceAlpha" type="matrix" values="0 0 0 0 0 0 0 0 0 0 0 0 0 0 0 0 0 0 127 0" result="hardAlpha"/>
<feOffset dy="4"/>
<feGaussianBlur stdDeviation="2"/>
<!-- <feComposite in2="hardAlpha" operator="out"/>
<feColorMatrix type="matrix" values="0 0 0 0 0 0 0 0 0 0 0 0 0 0 0 0 0 0 0.25 0"/> -->
<feBlend mode="normal" in2="BackgroundImageFix" result="effect1_dropShadow_1579_1973"/>
<feBlend mode="normal" in="SourceGraphic" in2="effect1_dropShadow_1579_1973" result="shape"/>
</filter>
<!-- <clipPath id="clip0_1579_1973">
<rect width="171" height="60" fill="white" transform="translate(4)"/>
</clipPath> -->
</defs>
</svg>
